<?xml version="1.0" encoding="utf-8"?>
<!-- Generator: Adobe Illustrator 19.2.1, SVG Export Plug-In . SVG Version: 6.00 Build 0)  -->
<!DOCTYPE svg PUBLIC "-//W3C//DTD SVG 1.1//EN" "http://www.w3.org/Graphics/SVG/1.1/DTD/svg11.dtd">
<svg version="1.1" xmlns="http://www.w3.org/2000/svg" xmlns:xlink="http://www.w3.org/1999/xlink" x="0px" y="0px"
	 width="1951.2px" height="640.2px" viewBox="0 0 1951.2 640.2" style="enable-background:new 0 0 1951.2 640.2;"
	 xml:space="preserve">
<style type="text/css">
	.st0{clip-path:url(#SVGID_2_);fill:#F4F4F4;}
	.st1{clip-path:url(#SVGID_2_);}
	.st2{fill:#FF6155;stroke:#234D6D;stroke-width:7;stroke-miterlimit:10;}
	.st3{fill:#F1F1F1;stroke:#234D6D;stroke-width:7;stroke-miterlimit:10;}
	.st4{fill:#D65B5B;stroke:#234D6D;stroke-width:7;stroke-miterlimit:10;}
	.st5{fill:#B6E7F2;stroke:#234D6D;stroke-width:4;stroke-linecap:round;stroke-linejoin:round;stroke-miterlimit:10;}
	.st6{fill:#FCDC58;stroke:#234D6D;stroke-width:7;stroke-miterlimit:10;}
	.st7{fill:#2ABDC9;stroke:#234D6D;stroke-width:7;stroke-miterlimit:10;}
	.st8{fill:none;stroke:#234D6D;stroke-width:7;stroke-linecap:round;stroke-miterlimit:10;}
	.st9{fill:#FF6D37;}
	.st10{fill:#336687;stroke:#234D6D;stroke-width:7;stroke-miterlimit:10;}
	.st11{fill:#DD2626;stroke:#234D6D;stroke-width:7;stroke-linecap:round;stroke-linejoin:round;stroke-miterlimit:10;}
	.st12{fill:#DD2626;stroke:#234D6D;stroke-width:7;stroke-miterlimit:10;}
	.st13{fill:#47CC1B;stroke:#234D6D;stroke-width:7;stroke-miterlimit:10;}
	.st14{clip-path:url(#SVGID_2_);fill:none;}
	.st15{clip-path:url(#SVGID_2_);fill:#AEF4FF;stroke:#234D6D;stroke-width:7;stroke-miterlimit:10;}
	.st16{clip-path:url(#SVGID_2_);fill:#FF6155;stroke:#234D6D;stroke-width:7;stroke-miterlimit:10;}
	.st17{clip-path:url(#SVGID_2_);fill:#FFFFFF;}
	.st18{fill:#75C441;stroke:#234D6D;stroke-width:7;stroke-miterlimit:10;}
</style>
<g id="Layer_1">
</g>
<g id="Layer_4">
</g>
<g id="Layer_2">
</g>
<g id="Layer_3">
</g>
<g id="Layer_8">
</g>
<g id="Layer_9">
</g>
<g id="Layer_7">
	<g>
		<defs>
			<rect id="SVGID_1_" width="1951.2" height="637.4"/>
		</defs>
		<clipPath id="SVGID_2_">
			<use xlink:href="#SVGID_1_"  style="overflow:visible;"/>
		</clipPath>
		<rect y="-176.7" class="st0" width="1951.2" height="814.1"/>
		<g class="st1">
			<path class="st2" d="M762.3,571.2l-40.8-8.5c-2.7-0.6-4.4-3.2-3.9-5.9l18-86.3c0.6-2.7,3.2-4.4,5.9-3.9l40.8,8.5
				c2.7,0.6,4.4,3.2,3.9,5.9l-18,86.3C767.7,570,765,571.7,762.3,571.2z"/>
			<path class="st2" d="M1107.8,643.2l-40.8-8.5c-2.7-0.6-4.4-3.2-3.9-5.9l18-86.3c0.6-2.7,3.2-4.4,5.9-3.9l40.8,8.5
				c2.7,0.6,4.4,3.2,3.9,5.9l-18,86.3C1113.2,642,1110.5,643.7,1107.8,643.2z"/>
			<path class="st2" d="M1110.3,587.1l-368.7-76.8c-7.5-1.6-12.4-9-10.9-16.6L852.7-91.6c1.6-7.5,9-12.4,16.6-10.9L1238-25.6
				c7.5,1.6,12.4,9,10.9,16.6l-121.9,585.3C1125.3,583.8,1117.9,588.7,1110.3,587.1z"/>
			<path class="st2" d="M1038.4-39l-69.2,332.2c-0.6,2.7-3.2,4.4-5.9,3.9l-153.4-32c-2.7-0.6-4.4-3.2-3.9-5.9L875.2-73
				c0.6-2.7,3.2-4.4,5.9-3.9l153.4,32C1037.2-44.3,1038.9-41.7,1038.4-39z"/>
			<path class="st3" d="M1220.7-1l-69.2,332.2c-0.6,2.7-3.2,4.4-5.9,3.9l-153.4-32c-2.7-0.6-4.4-3.2-3.9-5.9L1057.6-35
				c0.6-2.7,3.2-4.4,5.9-3.9l153.4,32C1219.6-6.3,1221.3-3.7,1220.7-1z"/>
			<path class="st4" d="M1206.4,69.1L1206.4,69.1c-0.5,2.4-2.8,3.9-5.2,3.4l-154.6-32.2c-2.4-0.5-3.9-2.8-3.4-5.2v0
				c0.5-2.4,2.8-3.9,5.2-3.4L1203,63.9C1205.3,64.4,1206.9,66.7,1206.4,69.1z"/>
			<path class="st4" d="M1185.6,168.8L1185.6,168.8c-0.5,2.4-2.8,3.9-5.2,3.4L1025.8,140c-2.4-0.5-3.9-2.8-3.4-5.2l0,0
				c0.5-2.4,2.8-3.9,5.2-3.4l154.6,32.2C1184.6,164.1,1186.1,166.4,1185.6,168.8z"/>
			<path class="st4" d="M1165.9,264.3L1165.9,264.3c-0.5,2.4-2.8,3.9-5.2,3.4l-154.6-32.2c-2.4-0.5-3.9-2.8-3.4-5.2v0
				c0.5-2.4,2.8-3.9,5.2-3.4l154.6,32.2C1164.8,259.6,1166.4,261.9,1165.9,264.3z"/>
			<path class="st2" d="M1362.4,56.4l-69.6,333.9c-0.5,2.2-2.7,3.7-4.9,3.2l-135.8-56.9c-2.2-0.5-3.7-2.7-3.2-4.9l69.6-333.9
				c0.5-2.2,2.7-3.7,4.9-3.2l135.8,56.9C1361.5,52,1362.9,54.2,1362.4,56.4z"/>
			<path class="st2" d="M1130.1,434.1l-8.8,42.1c-0.6,2.7-3.2,4.4-5.9,3.9l-335.8-69.9c-2.7-0.6-4.4-3.2-3.9-5.9l8.8-42.1
				c0.6-2.7,3.2-4.4,5.9-3.9l335.8,69.9C1128.9,428.7,1130.7,431.4,1130.1,434.1z"/>
			<path class="st2" d="M1114.4,509.5l-8.8,42.1c-0.6,2.7-3.2,4.4-5.9,3.9l-335.8-69.9c-2.7-0.6-4.4-3.2-3.9-5.9l8.8-42.1
				c0.6-2.7,3.2-4.4,5.9-3.9l335.8,69.9C1113.2,504.2,1114.9,506.8,1114.4,509.5z"/>
			<path class="st2" d="M1145.3,361.1l-8.8,42.1c-0.6,2.7-3.2,4.4-5.9,3.9l-335.8-69.9c-2.7-0.6-4.4-3.2-3.9-5.9l8.8-42.1
				c0.6-2.7,3.2-4.4,5.9-3.9l335.8,69.9C1144.1,355.7,1145.9,358.4,1145.3,361.1z"/>
			
				<ellipse transform="matrix(0.2039 -0.979 0.979 0.2039 431.8034 1223.364)" class="st3" cx="968.1" cy="346.2" rx="9.8" ry="9.8"/>
			
				<ellipse transform="matrix(0.2039 -0.979 0.979 0.2039 663.6918 1053.1772)" class="st3" cx="979.4" cy="118.5" rx="9.8" ry="9.8"/>
			
				<ellipse transform="matrix(0.2039 -0.979 0.979 0.2039 346.8469 1267.3042)" class="st3" cx="952.7" cy="420.4" rx="9.8" ry="9.8"/>
			<g>
				<path class="st5" d="M1085.9,34.5l5.4-29.3l19.4-16l-37.6-6.9l12,20.9l-5.5,30.2c-6.5-0.9-12.2-0.9-12.4,0.4
					c-0.3,1.5,6.4,3.9,14.9,5.5s15.7,1.6,16,0.2C1098.1,38.1,1092.8,36,1085.9,34.5z"/>
				<path class="st5" d="M1132,44.3l5.4-29.3l19.4-16L1119-8l12,20.9l-5.5,30.2c-6.5-0.9-12.2-0.9-12.4,0.4
					c-0.3,1.5,6.4,3.9,14.9,5.5s15.7,1.6,16,0.2C1144.2,47.9,1138.9,45.8,1132,44.3z"/>
				<path class="st5" d="M1175.4,52.3l5.4-29.3l19.4-16L1162.5,0l12,20.9l-5.5,30.2c-6.5-0.9-12.2-0.9-12.4,0.4
					c-0.3,1.5,6.4,3.9,14.9,5.5c8.5,1.5,15.7,1.6,16,0.2C1187.6,55.8,1182.3,53.8,1175.4,52.3z"/>
				<path class="st5" d="M1063.8,133.4l5.4-29.3l19.4-16l-37.6-6.9l12,20.9l-5.5,30.2c-6.5-0.9-12.2-0.9-12.4,0.4
					c-0.3,1.5,6.4,3.9,14.9,5.5c8.5,1.5,15.7,1.6,16,0.2C1076.1,137,1070.8,134.9,1063.8,133.4z"/>
				<path class="st5" d="M1109.9,143.1l5.4-29.3l19.4-16l-37.6-6.9l12,20.9l-5.5,30.2c-6.5-0.9-12.2-0.9-12.4,0.4
					c-0.3,1.5,6.4,3.9,14.9,5.5s15.7,1.6,16,0.2C1122.2,146.7,1116.9,144.6,1109.9,143.1z"/>
				<path class="st5" d="M1133.3,243.9l5.4-29.3l19.4-16l-37.6-6.9l12,20.9l-5.5,30.2c-6.5-0.9-12.2-0.9-12.4,0.4
					c-0.3,1.5,6.4,3.9,14.9,5.5c8.5,1.5,15.7,1.6,16,0.2C1145.6,247.5,1140.2,245.4,1133.3,243.9z"/>
				<path class="st5" d="M1024.4,303.7l5.4-29.3l19.4-16l-37.6-6.9l12,20.9l-5.5,30.2c-6.5-0.9-12.2-0.9-12.4,0.4
					c-0.3,1.5,6.4,3.9,14.9,5.5s15.7,1.6,16,0.2C1036.7,307.3,1031.4,305.2,1024.4,303.7z"/>
				<path class="st5" d="M1304,402.8l28.9-7.5l22.7,10.8l-9.6-37l-13.9,19.7l-29.7,7.7c-1.9-6.3-4.3-11.4-5.6-11.1
					c-1.4,0.4-0.9,7.5,1.3,15.8s5.1,14.9,6.5,14.5C1305.9,415.4,1305.5,409.7,1304,402.8z"/>
				<path class="st5" d="M1223.2,504l14-26.3l23.3-9.4l-33.8-18l5.1,23.5l-14.4,27.1c-5.9-2.8-11.3-4.5-12-3.4
					c-0.7,1.3,4.9,5.7,12.6,9.7c7.6,4,14.5,6.3,15.2,5C1233.8,511.1,1229.4,507.5,1223.2,504z"/>
				<path class="st5" d="M1213.2,360.1l-4.7-29.4l12.9-21.6l-37.8,6l18.2,15.7l4.8,30.3c-6.4,1.3-11.8,3.2-11.6,4.5
					c0.2,1.5,7.4,1.6,15.9,0.2s15.3-3.7,15.1-5.1C1225.9,359.5,1220.2,359.3,1213.2,360.1z"/>
				<path class="st5" d="M1274.3,564.9l25,16.3l7.3,24.1l20.9-32l-23.9,3l-25.7-16.8c3.4-5.6,5.5-10.9,4.4-11.6
					c-1.2-0.8-6.1,4.4-10.8,11.6c-4.7,7.2-7.6,13.8-6.3,14.6C1266.3,574.8,1270.2,570.7,1274.3,564.9z"/>
			</g>
			
				<ellipse transform="matrix(0.2039 -0.979 0.979 0.2039 261.8906 1311.2443)" class="st3" cx="937.2" cy="494.6" rx="9.8" ry="9.8"/>
		</g>
		<g class="st1">
			<path class="st3" d="M796.1,451.9c0,0,12.2,0.5,10.1,18.1c0,0-6,18.8,7.4,56.3c20,38.5,8.9,74.9,1.9,85.5l-25.1-0.9
				c0,0,10.8-34.6-4-76.3c-14.8-41.7-6.3-63.3-6.3-63.3S779.5,449.9,796.1,451.9z"/>
			<path class="st3" d="M720,443.9c0,0,15.1,0.4,13.1,18.1c0,0-8,21.1,4.7,58.5c19.2,38.4,7.1,72.5,0.3,83.2l-26.5,0.3
				c0,0,12.8-35.7-1.3-77.4c-14.1-41.6-5.8-63.3-5.8-63.3S704,442,720,443.9z"/>
			<path class="st6" d="M806.7,149.8h-92.6c-11,0-20,9-20,20v105c0,11,9,20,20,20h92.6c11,0,20-9,20-20v-105
				C826.7,158.8,817.7,149.8,806.7,149.8z"/>
			<path class="st3" d="M768.5,201.3h-16.2c-5,0-9,4.1-9,9v75.4c0,4.9,4,9,9,9h16.2c5,0,9-4.1,9-9v-75.4
				C777.5,205.4,773.5,201.3,768.5,201.3z"/>
			<path class="st3" d="M822.4,106.5h-124c-11,0-20,9-20,20v91c0,11,9,20,20,20h124c11,0,20-9,20-20v-91
				C842.4,115.5,833.4,106.5,822.4,106.5z"/>
			<path class="st7" d="M820.3,277.2H699.5c-7,0-12.8,6.6-12.8,14.7l-13.3,101.6c0,8.1,5.7,14.7,12.8,14.7h141.1
				c7,0,12.8-6.6,12.8-14.7L833,291.8C833,283.8,827.3,277.2,820.3,277.2z"/>
			<path class="st8" d="M713.4,165.4c0,0-1-10.8,10.8-10.8s11.2,10.8,11.2,10.8"/>
			<path class="st8" d="M790.7,186.9c0,0,2.6,29.6-29.6,29.6s-30.7-29.6-30.7-29.6"/>
			<path class="st8" d="M785.7,165.4c0,0-1-10.8,10.8-10.8c11.7,0,11.2,10.8,11.2,10.8"/>
			<path class="st6" d="M760.5,54.8c-49.7,0-90,31.7-90,79.7c0,0.2,0,1.3,0,1.3h77l14.9-25l14.9,25h73.1c0,0,0-1.1,0-1.3
				C850.5,86.5,810.2,54.8,760.5,54.8z"/>
			<circle class="st9" cx="701.5" cy="191.4" r="11.4"/>
			<circle class="st9" cx="819.1" cy="189.9" r="11.4"/>
			<path class="st10" d="M678.7,406.9c0,0-24.8,64.3-41.4,81.2c-12.3,12.5,130.7,43.6,215.6,23.3c0,0,11.4,9.5-18.7-104.5H678.7z"/>
			<g>
				<polygon class="st11" points="751.4,69.1 719.4,65.7 738.4,39.7 				"/>
				<polygon class="st11" points="705.5,95.3 687.3,68.7 719.5,66.3 				"/>
				<circle class="st12" cx="719.6" cy="65.8" r="11.4"/>
			</g>
			<path class="st3" d="M831.3,372.8h-31.8c-2.8,0-5,2.2-5,5v16.4c0,2.8,2.2,5,5,5h31.8c2.8,0,5-2.2,5-5v-16.4
				C836.3,375.1,834,372.8,831.3,372.8z"/>
			<path class="st7" d="M707.7,283.6c0,0-2.3-18-16.2-13.9c-14.9,4.4-6.9,25.4-6.9,25.4C704.1,401.1,813.3,400,813.3,400l5.8-25.6
				C717.2,371.5,707.7,283.6,707.7,283.6z"/>
			<g>
				<path class="st3" d="M950.4,311.2l-28.1-14.9c-2.4-1.3-3.4-4.3-2.1-6.8l5.3-9.9c1.3-2.4,4.3-3.4,6.8-2.1l28.1,14.9
					c2.4,1.3,3.4,4.3,2.1,6.8l-5.3,9.9C955.8,311.5,952.8,312.5,950.4,311.2z"/>
				<path class="st7" d="M804.5,279.7c0,0,1.8-9.8,17.1-5.8c0,0,19.7,9.9,54.1,4.1c36.1-11.1,63.2,0.4,71.8,7.6l-8.5,19.6
					c0,0-24.3-12.7-62.7-6.4c-38.4,6.4-56.5-3.5-56.5-3.5S801,293,804.5,279.7z"/>
			</g>
			<path class="st13" d="M811.4,610.9h-20c0,0-10.6,20.3-5.3,25.4c5.3,5.1,35.9,5.1,39.7,0C829.7,631.2,811.4,610.9,811.4,610.9z"/>
			<path class="st13" d="M732.4,604.9h-20.9c0,0-11,20.7-5.5,26.1c5.5,5.3,37.4,5.6,41.5,0.2C751.5,625.9,732.4,604.9,732.4,604.9z"
				/>
		</g>
		<rect x="-47.4" y="-219.9" class="st14" width="1999" height="1025.9"/>
		<path class="st15" d="M540,60.3H119.9c-4.9,0-9,4.1-9,9v267.2c0,5,4.1,9,9,9H540c5,0,9-4,9-9V69.3C549,64.4,544.9,60.3,540,60.3z"
			/>
		<path class="st16" d="M545,330.6H114.9c-5,0-9,4-9,9v0c0,4.9,4,9,9,9H545c5,0,9-4.1,9-9v0C554,334.7,550,330.6,545,330.6z"/>
		<path class="st17" d="M352.9,188.4c0.7-2.7,1-5.6,1-8.6c0-20.9-17-37.9-37.9-37.9c-12.2,0-23,5.8-29.9,14.7
			c-6.2-4.4-13.7-6.9-21.9-7c-8.9-17.4-26.9-29.4-47.8-29.4c-29.6,0-53.6,23.9-53.6,53.5c0,5.1,0.7,9.8,2,14.5H352.9z"/>
		<path class="st17" d="M479,247.4c1.3-3,2-7.7,2-12c0-21.2-17.2-38.3-38.4-38.3c-13.8,0-25.9,7.4-32.7,18.3
			c-3.5-1.4-7.4-2.2-11.5-2.2c-16.8,0-30.4,13.4-30.4,30.2c0,1.5,0.1,2,0.3,4H479z"/>
		<g class="st1">
			<path d="M1569.2,550.5l-13-73.5c-0.3-1.4-1.6-2.4-3-2.1l-1.4,0.2c-1.4,0.3-2.4,1.6-2.1,3l13,73.5c0.3,1.4,1.6,2.4,3,2.1l1.4-0.2
				C1568.5,553.3,1569.5,552,1569.2,550.5z"/>
			<path d="M1602.6,551.6l15.7-73.2c0.3-1.4-0.6-2.7-1.9-3l-1.3-0.3c-1.4-0.3-2.7,0.6-3,1.9l-15.7,73.2c-0.3,1.4,0.6,2.7,1.9,3
				l1.3,0.3C1600.9,553.8,1602.3,553,1602.6,551.6z"/>
			<path d="M1587.3,551.1l-7.3-94.5c-0.1-1.6-1.5-2.7-3-2.6l-1.5,0.1c-1.6,0.1-2.7,1.5-2.6,3l7.3,94.5c0.1,1.6,1.5,2.7,3,2.6
				l1.5-0.1C1586.3,554,1587.4,552.6,1587.3,551.1z"/>
			<path class="st2" d="M1637,548.2h-100.1c-4.9,0-8.8,5.1-8.8,11.4l13.9,64.1c0,6.3,4,11.4,8.8,11.4h72.3c4.9,0,8.8-5.1,8.8-11.4
				l13.9-64.1C1645.8,553.3,1641.9,548.2,1637,548.2z"/>
			<path class="st18" d="M1520.2,353.5c0,0-35.9,124.2,58.6,134.7C1578.9,488.2,1633.5,421.6,1520.2,353.5z"/>
			<path class="st18" d="M1692.5,346.2c0,0-151.5,65.9-84.8,167.4C1607.7,513.6,1717.8,513.1,1692.5,346.2z"/>
			<path class="st18" d="M1486.1,427.2c0,0-1.9,105.4,74.8,93.5C1560.8,520.8,1589.7,456.7,1486.1,427.2z"/>
			<path class="st2" d="M1643.8,542.4h-113.7c-4.9,0-9,4.1-9,9v4.8c0,5,4.1,9,9,9h113.7c4.9,0,9-4,9-9v-4.8
				C1652.8,546.5,1648.7,542.4,1643.8,542.4z"/>
		</g>
	</g>
</g>
</svg>
