<?xml version="1.0" encoding="utf-8"?>
<!-- Generator: Adobe Illustrator 19.2.1, SVG Export Plug-In . SVG Version: 6.00 Build 0)  -->
<svg version="1.1" id="Layer_1" xmlns="http://www.w3.org/2000/svg" xmlns:xlink="http://www.w3.org/1999/xlink" x="0px" y="0px"
	 viewBox="0 0 1646.7 794.2" style="enable-background:new 0 0 1646.7 794.2;" xml:space="preserve">
<style type="text/css">
	.st0{fill:#FF6155;stroke:#234D6D;stroke-width:7;stroke-miterlimit:10;}
	.st1{fill:#F1F1F1;stroke:#234D6D;stroke-width:7;stroke-miterlimit:10;}
	.st2{fill:#D65B5B;stroke:#234D6D;stroke-width:7;stroke-miterlimit:10;}
	.st3{fill:#B6E7F2;stroke:#234D6D;stroke-width:4;stroke-linecap:round;stroke-linejoin:round;stroke-miterlimit:10;}
	.st4{fill:#FCDC58;stroke:#234D6D;stroke-width:7;stroke-miterlimit:10;}
	.st5{fill:#2ABDC9;stroke:#234D6D;stroke-width:7;stroke-miterlimit:10;}
	.st6{fill:none;stroke:#234D6D;stroke-width:7;stroke-linecap:round;stroke-miterlimit:10;}
	.st7{fill:#FF6D37;}
	.st8{fill:#336687;stroke:#234D6D;stroke-width:7;stroke-miterlimit:10;}
	.st9{fill:#DD2626;stroke:#234D6D;stroke-width:7;stroke-linecap:round;stroke-linejoin:round;stroke-miterlimit:10;}
	.st10{fill:#DD2626;stroke:#234D6D;stroke-width:7;stroke-miterlimit:10;}
	.st11{fill:#47CC1B;stroke:#234D6D;stroke-width:7;stroke-miterlimit:10;}
	.st12{fill:#AEF4FF;stroke:#234D6D;stroke-width:7;stroke-miterlimit:10;}
	.st13{fill:#FFFFFF;}
	.st14{fill:#75C441;stroke:#234D6D;stroke-width:7;stroke-miterlimit:10;}
</style>
<g id="Layer_1_1_">
</g>
<g id="Layer_4">
</g>
<g id="Layer_2">
</g>
<g id="Layer_3">
</g>
<g id="Layer_9">
</g>
<path class="st0" d="M694,698.1l-40.8-8.5c-2.7-0.6-4.4-3.2-3.9-5.9l18-86.3c0.6-2.7,3.2-4.4,5.9-3.9L714,602
	c2.7,0.6,4.4,3.2,3.9,5.9l-18,86.3C699.4,696.9,696.7,698.7,694,698.1z"/>
<path class="st0" d="M1039.6,770.1l-40.8-8.5c-2.7-0.6-4.4-3.2-3.9-5.9l18-86.3c0.6-2.7,3.2-4.4,5.9-3.9l40.8,8.5
	c2.7,0.6,4.4,3.2,3.9,5.9l-18,86.3C1044.9,768.9,1042.3,770.6,1039.6,770.1z"/>
<path class="st0" d="M1042.1,714l-368.8-76.8c-7.5-1.6-12.4-9-10.9-16.6l122-585.2c1.6-7.5,9-12.4,16.6-10.9l368.7,76.8
	c7.5,1.6,12.4,9,10.9,16.6l-122,585.3C1057,710.7,1049.6,715.6,1042.1,714z"/>
<path class="st0" d="M970.1,88l-69.2,332.2c-0.6,2.7-3.2,4.4-5.9,3.9l-153.4-32c-2.7-0.6-4.4-3.2-3.9-5.9L806.9,54
	c0.6-2.7,3.2-4.4,5.9-3.9l153.4,32C968.9,82.6,970.7,85.3,970.1,88z"/>
<path class="st1" d="M1152.5,126l-69.2,332.1c-0.6,2.7-3.2,4.4-5.9,3.9L924,430c-2.7-0.6-4.4-3.2-3.9-5.9L989.3,92
	c0.6-2.7,3.2-4.4,5.9-3.9l153.4,32C1151.3,120.6,1153,123.3,1152.5,126z"/>
<path class="st2" d="M1138.1,196L1138.1,196c-0.5,2.4-2.8,3.9-5.2,3.4l-154.6-32.2c-2.4-0.5-3.9-2.8-3.4-5.2l0,0
	c0.5-2.4,2.8-3.9,5.2-3.4l154.6,32.2C1137.1,191.3,1138.6,193.6,1138.1,196z"/>
<path class="st2" d="M1117.3,295.7L1117.3,295.7c-0.5,2.4-2.8,3.9-5.2,3.4l-154.6-32.2c-2.4-0.5-3.9-2.8-3.4-5.2l0,0
	c0.5-2.4,2.8-3.9,5.2-3.4l154.6,32.2C1116.3,291,1117.8,293.4,1117.3,295.7z"/>
<path class="st2" d="M1097.6,391.2L1097.6,391.2c-0.5,2.4-2.8,3.9-5.2,3.4l-154.6-32.2c-2.4-0.5-3.9-2.8-3.4-5.2l0,0
	c0.5-2.4,2.8-3.9,5.2-3.4l154.6,32.2C1096.6,386.5,1098.1,388.9,1097.6,391.2z"/>
<path class="st0" d="M1294.2,183.3l-69.6,333.9c-0.5,2.2-2.7,3.7-4.9,3.2l-135.8-56.9c-2.2-0.5-3.7-2.7-3.2-4.9l69.6-333.8
	c0.5-2.2,2.7-3.7,4.9-3.2l135.8,56.9C1293.2,178.9,1294.6,181.1,1294.2,183.3z"/>
<path class="st0" d="M1061.8,561l-8.8,42.1c-0.6,2.7-3.2,4.4-5.9,3.9l-335.8-69.9c-2.7-0.6-4.4-3.2-3.9-5.9l8.8-42.1
	c0.6-2.7,3.2-4.4,5.9-3.9l335.8,69.9C1060.6,555.7,1062.4,558.3,1061.8,561z"/>
<path class="st0" d="M1046.1,636.5l-8.8,42.1c-0.6,2.7-3.2,4.4-5.9,3.9l-335.8-69.9c-2.7-0.6-4.4-3.2-3.9-5.9l8.8-42.1
	c0.6-2.7,3.2-4.4,5.9-3.9l335.8,69.9C1044.9,631.1,1046.7,633.8,1046.1,636.5z"/>
<path class="st0" d="M1077,488l-8.7,42.2c-0.6,2.7-3.2,4.4-5.9,3.9l-335.8-69.9c-2.7-0.6-4.4-3.2-3.9-5.9l8.8-42.1
	c0.6-2.7,3.2-4.4,5.9-3.9l335.8,69.9C1075.8,482.7,1077.6,485.3,1077,488z"/>
<ellipse transform="matrix(0.2039 -0.979 0.979 0.2039 253.2316 1257.5221)" class="st1" cx="899.8" cy="473.1" rx="9.8" ry="9.8"/>
<ellipse transform="matrix(0.2039 -0.979 0.979 0.2039 485.1014 1087.3051)" class="st1" cx="911.1" cy="245.4" rx="9.8" ry="9.8"/>
<ellipse transform="matrix(0.2039 -0.979 0.979 0.2039 168.2274 1301.4778)" class="st1" cx="884.3" cy="547.3" rx="9.8" ry="9.8"/>
<g>
	<path class="st3" d="M1017.6,161.5l5.4-29.3l19.4-16l-37.6-6.9l12,20.9l-5.5,30.2c-6.5-0.9-12.2-0.9-12.4,0.4
		c-0.3,1.5,6.4,3.9,14.9,5.5c8.5,1.5,15.7,1.6,16,0.2C1029.8,165.1,1024.5,163,1017.6,161.5z"/>
	<path class="st3" d="M1063.7,171.2l5.4-29.3l19.4-16l-37.6-6.9l12,20.9l-5.5,30.2c-6.5-0.9-12.2-0.9-12.4,0.4
		c-0.3,1.5,6.4,3.9,14.9,5.5c8.5,1.5,15.7,1.6,16,0.2C1075.9,174.8,1070.6,172.7,1063.7,171.2z"/>
	<path class="st3" d="M1107.1,179.2l5.4-29.3l19.4-16l-37.6-6.9l12,20.9l-5.5,30.2c-6.5-0.9-12.2-0.9-12.4,0.4
		c-0.3,1.5,6.4,3.9,14.9,5.5c8.5,1.5,15.7,1.6,16,0.2C1119.4,182.8,1114,180.7,1107.1,179.2z"/>
	<path class="st3" d="M995.6,260.3l5.4-29.3l19.4-16l-37.6-6.9l12,20.9l-5.5,30.2c-6.5-0.9-12.2-0.9-12.4,0.4
		c-0.3,1.5,6.4,3.9,14.9,5.5c8.5,1.5,15.7,1.6,16,0.2C1007.8,263.9,1002.5,261.8,995.6,260.3z"/>
	<path class="st3" d="M1041.6,270.1l5.4-29.3l19.4-16l-37.6-6.9l12,20.9l-5.5,30.2c-6.5-0.9-12.2-0.9-12.4,0.4
		c-0.3,1.5,6.4,3.9,14.9,5.5c8.5,1.5,15.7,1.6,16,0.2C1053.9,273.7,1048.6,271.6,1041.6,270.1z"/>
	<path class="st3" d="M1065,370.9l5.4-29.3l19.4-16l-37.6-6.9l12,20.9l-5.5,30.2c-6.5-0.9-12.2-0.9-12.4,0.4
		c-0.3,1.5,6.4,3.9,14.9,5.5c8.5,1.5,15.7,1.6,16,0.2C1077.3,374.5,1072,372.4,1065,370.9z"/>
	<path class="st3" d="M956.2,430.6l5.4-29.3l19.4-16l-37.6-6.9l12,20.9l-5.5,30.2c-6.5-0.9-12.2-0.9-12.4,0.4
		c-0.3,1.5,6.4,3.9,14.9,5.5s15.7,1.6,16,0.2C968.4,434.2,963.1,432.1,956.2,430.6z"/>
	<path class="st3" d="M1235.7,529.7l28.9-7.5l22.7,10.8l-9.6-37l-13.9,19.7l-29.7,7.7c-1.9-6.3-4.3-11.4-5.6-11.1
		c-1.4,0.4-0.9,7.5,1.3,15.8c2.2,8.3,5.1,14.9,6.5,14.5C1237.6,542.4,1237.2,536.7,1235.7,529.7z"/>
	<path class="st3" d="M1155,630.9l14-26.3l23.3-9.4l-33.8-18l5.1,23.5l-14.4,27.1c-5.9-2.8-11.3-4.5-12-3.4
		c-0.7,1.3,4.9,5.7,12.6,9.7c7.6,4,14.5,6.3,15.2,5C1165.6,638,1161.1,634.4,1155,630.9z"/>
	<path class="st3" d="M1144.9,487.1l-4.7-29.4l12.9-21.6l-37.8,6l18.2,15.7l4.8,30.3c-6.4,1.3-11.8,3.2-11.6,4.5
		c0.2,1.5,7.4,1.6,15.9,0.2c8.5-1.3,15.3-3.7,15.1-5.1C1157.7,486.4,1152,486.2,1144.9,487.1z"/>
	<path class="st3" d="M1206,691.8l25,16.3l7.3,24.1l20.9-32l-23.9,3l-25.7-16.8c3.4-5.6,5.5-10.9,4.4-11.6
		c-1.2-0.8-6.1,4.4-10.8,11.6c-4.7,7.2-7.6,13.8-6.3,14.6C1198,701.7,1202,697.7,1206,691.8z"/>
</g>
<ellipse transform="matrix(0.2039 -0.979 0.979 0.2039 83.3356 1345.3756)" class="st1" cx="868.9" cy="621.4" rx="9.8" ry="9.8"/>
<g>
	<path class="st1" d="M727.8,578.8c0,0,12.2,0.5,10.1,18.1c0,0-6,18.8,7.4,56.3c20,38.5,8.9,74.9,1.9,85.5l-25.1-0.9
		c0,0,10.8-34.6-4-76.3s-6.3-63.3-6.3-63.3S711.3,576.9,727.8,578.8z"/>
	<path class="st1" d="M651.7,570.8c0,0,15.1,0.4,13.1,18.1c0,0-8,21.1,4.7,58.5c19.2,38.4,7.1,72.5,0.3,83.2l-26.5,0.3
		c0,0,12.8-35.7-1.3-77.4c-14.1-41.6-5.8-63.3-5.8-63.3S635.7,569,651.7,570.8z"/>
	<path class="st4" d="M738.5,276.7h-92.6c-11,0-20,9-20,20v105c0,11,9,20,20,20h92.6c11,0,20-9,20-20v-105
		C758.5,285.7,749.5,276.7,738.5,276.7z"/>
	<path class="st1" d="M700.3,328.3h-16.2c-5,0-9,4.1-9,9v75.4c0,4.9,4,9,9,9h16.2c4.9,0,9-4.1,9-9v-75.4
		C709.3,332.3,705.2,328.3,700.3,328.3z"/>
	<path class="st1" d="M754.2,233.4h-124c-11,0-20,9-20,20v91c0,11,9,20,20,20h124c11,0,20-9,20-20v-91
		C774.2,242.4,765.2,233.4,754.2,233.4z"/>
	<path class="st5" d="M752,404.1H631.2c-7,0-12.8,6.6-12.8,14.7l-13.3,101.6c0,8.1,5.7,14.7,12.8,14.7H759c7,0,12.8-6.6,12.8-14.7
		l-7.1-101.6C764.7,410.7,759,404.1,752,404.1z"/>
	<path class="st6" d="M645.1,292.4c0,0-1-10.8,10.8-10.8s11.2,10.8,11.2,10.8"/>
	<path class="st6" d="M722.4,313.9c0,0,2.6,29.6-29.6,29.6s-30.7-29.6-30.7-29.6"/>
	<path class="st6" d="M717.4,292.4c0,0-1-10.8,10.8-10.8s11.2,10.8,11.2,10.8"/>
	<path class="st4" d="M692.2,181.8c-49.7,0-90,31.7-90,79.7c0,0.2,0,1.3,0,1.3h77l14.9-25l14.9,25h73.1c0,0,0-1.1,0-1.3
		C782.2,213.5,741.9,181.8,692.2,181.8z"/>
	<circle class="st7" cx="633.3" cy="318.4" r="11.4"/>
	<circle class="st7" cx="750.8" cy="316.8" r="11.4"/>
	<path class="st8" d="M610.4,533.8c0,0-24.8,64.3-41.4,81.2c-12.3,12.5,130.7,43.6,215.6,23.3c0,0,11.4,9.5-18.7-104.5H610.4z"/>
	<g>
		<polygon class="st9" points="683.2,196 651.1,192.6 670.1,166.6 		"/>
		<polygon class="st9" points="637.3,222.2 619.1,195.7 651.2,193.2 		"/>
		<circle class="st10" cx="651.3" cy="192.8" r="11.4"/>
	</g>
	<path class="st1" d="M763,499.8h-31.8c-2.8,0-5,2.2-5,5v16.4c0,2.8,2.2,5,5,5H763c2.8,0,5-2.2,5-5v-16.4
		C768,502,765.7,499.8,763,499.8z"/>
	<path class="st5" d="M639.4,410.5c0,0-2.3-18-16.2-13.9c-14.9,4.4-6.9,25.4-6.9,25.4c19.5,106,128.6,104.9,128.6,104.9l5.8-25.6
		C648.9,498.4,639.4,410.5,639.4,410.5z"/>
	<g>
		<path class="st1" d="M882.1,438.1L854,423.2c-2.4-1.3-3.4-4.3-2.1-6.8l5.3-9.9c1.3-2.4,4.3-3.4,6.8-2.1l28.1,14.9
			c2.4,1.3,3.4,4.3,2.1,6.8l-5.3,9.9C887.6,438.5,884.5,439.4,882.1,438.1z"/>
		<path class="st5" d="M736.2,406.6c0,0,1.8-9.8,17.1-5.8c0,0,19.7,9.9,54.1,4.1c36.1-11.1,63.2,0.4,71.8,7.6l-8.5,19.6
			c0,0-24.3-12.7-62.7-6.4c-38.4,6.4-56.5-3.5-56.5-3.5S732.7,419.9,736.2,406.6z"/>
	</g>
	<path class="st11" d="M743.1,737.8h-20c0,0-10.6,20.3-5.3,25.4c5.3,5.1,35.9,5.1,39.7,0C761.3,758.1,743.1,737.8,743.1,737.8z"/>
	<path class="st11" d="M664.1,731.8h-20.8c0,0-11,20.7-5.5,26.1c5.5,5.3,37.4,5.6,41.5,0.2C683.4,752.7,664.1,731.8,664.1,731.8z"/>
</g>
<g>
	<path class="st12" d="M471.7,187.2H51.6c-4.9,0-9,4.1-9,9v267.2c0,5,4.1,9,9,9h420.1c4.9,0,9-4,9-9V196.2
		C480.7,191.3,476.7,187.2,471.7,187.2z"/>
</g>
<g>
	<path class="st0" d="M476.7,457.6H46.6c-4.9,0-9,4-9,9l0,0c0,5,4.1,9,9,9h430.1c4.9,0,9-4,9-9l0,0
		C485.7,461.6,481.7,457.6,476.7,457.6z"/>
</g>
<g>
	<path class="st13" d="M284.6,315.3c0.7-2.7,1-5.6,1-8.6c0-20.9-17-37.9-37.9-37.9c-12.2,0-23,5.8-29.9,14.7
		c-6.2-4.4-13.7-6.9-21.9-7c-8.9-17.4-26.9-29.4-47.8-29.4c-29.6,0-53.6,23.9-53.6,53.5c0,5.1,0.7,9.8,2,14.5h188.1V315.3z"/>
</g>
<g>
	<path class="st13" d="M410.7,374.3c1.3-3,2-7.7,2-12c0-21.2-17.2-38.3-38.4-38.3c-13.8,0-25.9,7.4-32.7,18.3
		c-3.5-1.4-7.4-2.2-11.5-2.2c-16.8,0-30.4,13.4-30.4,30.2c0,1.5,0.1,2,0.3,4H410.7z"/>
</g>
<g>
	<path d="M1501,677.5l-13-73.5c-0.3-1.4-1.6-2.4-3-2.1l-1.4,0.2c-1.4,0.3-2.4,1.6-2.1,3l13,73.5c0.3,1.4,1.6,2.4,3,2.1l1.4-0.2
		C1500.3,680.2,1501.2,678.9,1501,677.5z"/>
	<path d="M1534.3,678.6l15.7-73.2c0.3-1.4-0.6-2.7-1.9-3l-1.3-0.3c-1.4-0.3-2.7,0.6-3,1.9l-15.7,73.2c-0.3,1.4,0.6,2.7,1.9,3
		l1.3,0.3C1532.7,680.8,1534,679.9,1534.3,678.6z"/>
	<path d="M1519,678l-7.3-94.5c-0.1-1.6-1.5-2.7-3-2.6l-1.5,0.1c-1.6,0.1-2.7,1.5-2.6,3l7.3,94.5c0.1,1.6,1.5,2.7,3,2.6l1.5-0.1
		C1518,680.9,1519.2,679.6,1519,678z"/>
	<path class="st0" d="M1568.7,675.1h-100.1c-4.9,0-8.8,5.1-8.8,11.4l13.9,64.1c0,6.3,4,11.4,8.8,11.4h72.3c4.9,0,8.8-5.1,8.8-11.4
		l13.9-64.1C1577.6,680.3,1573.6,675.1,1568.7,675.1z"/>
	<path class="st14" d="M1452,480.5c0,0-35.9,124.2,58.6,134.7C1510.6,615.2,1565.3,548.5,1452,480.5z"/>
	<path class="st14" d="M1624.2,473.1c0,0-151.5,65.9-84.8,167.4C1539.4,640.6,1649.5,640.1,1624.2,473.1z"/>
	<path class="st14" d="M1417.8,554.2c0,0-1.9,105.4,74.8,93.5C1492.6,647.7,1521.4,583.7,1417.8,554.2z"/>
	<path class="st0" d="M1575.5,669.3h-113.7c-4.9,0-9,4-9,9v4.8c0,5,4.1,9,9,9h113.7c4.9,0,9-4,9-9v-4.8
		C1584.5,673.4,1580.5,669.3,1575.5,669.3z"/>
</g>
</svg>
