<?xml version="1.0" encoding="utf-8"?>
<!-- Generator: Adobe Illustrator 19.2.1, SVG Export Plug-In . SVG Version: 6.00 Build 0)  -->
<svg version="1.1" id="Layer_1" xmlns="http://www.w3.org/2000/svg" xmlns:xlink="http://www.w3.org/1999/xlink" x="0px" y="0px"
	 viewBox="0 0 714.6 363.1" style="enable-background:new 0 0 714.6 363.1;" xml:space="preserve">
<style type="text/css">
	.st0{fill:#003268;}
	.st1{fill:#FF6155;}
</style>
<g>
	<g>
		<path class="st0" d="M559.6,250.2l-17.5-3.6c-7.1-1.4-11.6-5.9-11.6-12.1c0-7.1,6.9-13.3,16.6-13.3c15.4,0,20.4,10.7,21.3,17.3
			l23.2-6.6c-1.9-11.4-12.3-32.2-44.6-32.2c-23.9,0-42.4,17.1-42.4,37.2c0,15.9,10.7,29.2,31.1,33.7l17.1,3.8
			c9.2,1.9,13.5,6.6,13.5,12.8c0,7.1-5.9,13.3-17.3,13.3c-14.7,0-18.5-3.2-19.5-13.7l-23.9,6.6c1.4,13,10.2,28.8,43.7,28.8
			c29.4,0,43.6-19.4,43.6-37C592.8,268.3,581.4,255,559.6,250.2z"/>
	</g>
	<path class="st0" d="M306.1,200.7c-17.8,0-31.4,8.3-36.4,18.3v-14.9H269l0.1-201h-26.4v200.2l0,0v159.8h28v-57.4
		c5,8.8,18,15.9,34.6,15.9c33.2,0,54.2-26.1,54.2-60.7C359.5,226.8,340.2,200.7,306.1,200.7z M300.5,297.2
		c-18,0-31.1-14.2-31.1-36.3c0-21.6,13-35.8,31.1-35.8c18.5,0,31.1,14.2,31.1,35.8C331.5,283,318.7,297.2,300.5,297.2z"/>
	<path class="st1" d="M680.8,139v113.8h-647V139H680.8 M714.6,105.2h-33.8h-647H0V139v113.8v33.8h33.8h647h33.8v-33.8V139
		L714.6,105.2L714.6,105.2z"/>
	<polygon class="st0" points="221.2,58.1 184.7,58.1 140.7,105.2 140.7,3.1 113.7,3.1 113.7,174.1 140.7,174.1 140.7,141.7 
		154.7,126.9 188.5,174.1 222.1,174.1 173.8,107.2 	"/>
	<path class="st0" d="M355.1,177.5c27.7,0,46-16.4,52.2-36.5l-23.2-7.3c-3.8,11.4-12.3,20.3-28.9,20.3c-17.1,0-30.8-12.9-31.5-29.9
		h84.4c0.2-1,0.7-4.5,0.7-9c0-36.5-20.9-60.1-56.4-60.1c-29.2,0-56.2,24.1-56.2,60.6C296.1,154.8,323.8,177.5,355.1,177.5z
		 M352.5,78.5c19,0,28,11.6,28.4,25.6h-56.7C325.2,92.1,335.2,78.5,352.5,78.5z"/>
	<rect x="434.7" y="58.1" class="st0" width="28" height="116"/>
	<path class="st0" d="M448.5,35.8c10,0,18-7.8,18-17.8s-8.1-18-18-18c-9.7,0-17.8,8.1-17.8,18C430.7,28,438.8,35.8,448.5,35.8z"/>
	<path class="st0" d="M558.9,55.2c-12.8,0-26.2,5.5-34.2,18.7V58.1h-26v116h27v-66.7c0-15.2,8-27.3,23.6-27.3
		c17.3,0,23.4,11.4,23.4,25.6v68.4h28V101C600.7,75.6,587.1,55.2,558.9,55.2z"/>
	<path class="st0" d="M478.7,242.9c0-23-13.6-43.1-49.2-43.1c-28.4,0-46.5,17.8-48.6,37.7l25.1,5.7c1.2-11.6,9.2-20.9,23.7-20.9
		c15.2,0,21.8,7.8,21.8,17.5c0,4-1.9,7.3-8.5,8.3l-29.6,4.5c-19.7,2.8-34.8,14.2-34.8,34.8c0,18.3,14.9,34.8,39.1,34.8
		c18.7,0,30.1-9.3,35.6-18.1c0,9.2,0.9,13.9,1.2,14.9h25.6c-0.2-1-1.2-8.4-1.2-18.8v-57.3H478.7z M451.7,270.9
		c0,22.5-13.4,29.9-28.8,29.9c-10.9,0-16.9-7.1-16.9-14.9c0-9.5,7-14.2,15.5-15.6l30.2-4.5V270.9z"/>
	<polygon class="st0" points="269.7,204.4 269.8,3.4 242.7,3.4 242.7,204.4 	"/>
</g>
</svg>
