<?xml version="1.0" encoding="utf-8"?>
<!-- Generator: Adobe Illustrator 19.2.1, SVG Export Plug-In . SVG Version: 6.00 Build 0)  -->
<!DOCTYPE svg PUBLIC "-//W3C//DTD SVG 1.1//EN" "http://www.w3.org/Graphics/SVG/1.1/DTD/svg11.dtd">
<svg version="1.1" xmlns="http://www.w3.org/2000/svg" xmlns:xlink="http://www.w3.org/1999/xlink" x="0px" y="0px"
	 width="1951.2px" height="428.8px" viewBox="0 0 1951.2 428.8" style="enable-background:new 0 0 1951.2 428.8;"
	 xml:space="preserve">
<style type="text/css">
	.st0{clip-path:url(#SVGID_2_);}
	.st1{fill:none;}
	.st2{fill:#F4F4F4;}
	.st3{fill:#FF6155;stroke:#234D6D;stroke-width:7;stroke-miterlimit:10;}
	.st4{fill:#F1F1F1;stroke:#234D6D;stroke-width:7;stroke-miterlimit:10;}
	.st5{fill:#D65B5B;stroke:#234D6D;stroke-width:7;stroke-miterlimit:10;}
	.st6{fill:#B6E7F2;stroke:#234D6D;stroke-width:4;stroke-linecap:round;stroke-linejoin:round;stroke-miterlimit:10;}
	.st7{fill:#FCDC58;stroke:#234D6D;stroke-width:7;stroke-miterlimit:10;}
	.st8{fill:#2ABDC9;stroke:#234D6D;stroke-width:7;stroke-miterlimit:10;}
	.st9{fill:none;stroke:#234D6D;stroke-width:7;stroke-linecap:round;stroke-miterlimit:10;}
	.st10{fill:#FF6D37;}
	.st11{fill:#336687;stroke:#234D6D;stroke-width:7;stroke-miterlimit:10;}
	.st12{fill:#DD2626;stroke:#234D6D;stroke-width:7;stroke-linecap:round;stroke-linejoin:round;stroke-miterlimit:10;}
	.st13{fill:#DD2626;stroke:#234D6D;stroke-width:7;stroke-miterlimit:10;}
	.st14{fill:#47CC1B;stroke:#234D6D;stroke-width:7;stroke-miterlimit:10;}
	.st15{fill:#AEF4FF;stroke:#234D6D;stroke-width:7;stroke-miterlimit:10;}
	.st16{fill:#FFFFFF;}
	.st17{fill:#75C441;stroke:#234D6D;stroke-width:7;stroke-miterlimit:10;}
</style>
<g id="Layer_1">
	<g id="Layer_1_1_">
	</g>
	<g id="Layer_4">
	</g>
	<g id="Layer_2">
	</g>
	<g id="Layer_3">
	</g>
	<g id="Layer_8">
	</g>
	<g id="Layer_9">
	</g>
</g>
<g id="Layer_2_1_">
	<g>
		<defs>
			<rect id="SVGID_1_" y="-65.8" width="1953.6" height="494"/>
		</defs>
		<clipPath id="SVGID_2_">
			<use xlink:href="#SVGID_1_"  style="overflow:visible;"/>
		</clipPath>
		<g id="Layer_7" class="st0">
			<g>
				<rect y="-65.8" class="st1" width="1951.2" height="637.4"/>
				<rect y="-242.5" class="st2" width="1951.2" height="814.1"/>
				<rect y="-65.8" class="st1" width="1951.2" height="637.4"/>
				<g>
					<path class="st3" d="M762.3,505.4l-40.8-8.5c-2.7-0.6-4.4-3.2-3.9-5.9l18-86.3c0.6-2.7,3.2-4.4,5.9-3.9l40.8,8.5
						c2.7,0.6,4.4,3.2,3.9,5.9l-18,86.3C767.7,504.2,765,505.9,762.3,505.4z"/>
					<path class="st3" d="M1107.8,577.4l-40.8-8.5c-2.7-0.6-4.4-3.2-3.9-5.9l18-86.3c0.6-2.7,3.2-4.4,5.9-3.9l40.8,8.5
						c2.7,0.6,4.4,3.2,3.9,5.9l-18,86.3C1113.2,576.2,1110.5,577.9,1107.8,577.4z"/>
					<path class="st3" d="M1110.3,521.3l-368.7-76.8c-7.5-1.6-12.4-9-10.9-16.6l122-585.3c1.6-7.5,9-12.4,16.6-10.9L1238-91.4
						c7.5,1.6,12.4,9,10.9,16.6L1127,510.5C1125.3,518,1117.9,522.9,1110.3,521.3z"/>
					<path class="st3" d="M1038.4-104.8l-69.2,332.2c-0.6,2.7-3.2,4.4-5.9,3.9l-153.4-32c-2.7-0.6-4.4-3.2-3.9-5.9l69.2-332.2
						c0.6-2.7,3.2-4.4,5.9-3.9l153.4,32C1037.2-110.1,1038.9-107.5,1038.4-104.8z"/>
					<path class="st4" d="M1220.7-66.8l-69.2,332.2c-0.6,2.7-3.2,4.4-5.9,3.9l-153.4-32c-2.7-0.6-4.4-3.2-3.9-5.9l69.3-332.2
						c0.6-2.7,3.2-4.4,5.9-3.9l153.4,32C1219.6-72.1,1221.3-69.5,1220.7-66.8z"/>
					<path class="st5" d="M1206.4,3.3L1206.4,3.3c-0.5,2.4-2.8,3.9-5.2,3.4l-154.6-32.2c-2.4-0.5-3.9-2.8-3.4-5.2l0,0
						c0.5-2.4,2.8-3.9,5.2-3.4L1203-1.9C1205.3-1.4,1206.9,0.9,1206.4,3.3z"/>
					<path class="st5" d="M1185.6,103L1185.6,103c-0.5,2.4-2.8,3.9-5.2,3.4l-154.6-32.2c-2.4-0.5-3.9-2.8-3.4-5.2l0,0
						c0.5-2.4,2.8-3.9,5.2-3.4l154.6,32.2C1184.6,98.3,1186.1,100.6,1185.6,103z"/>
					<path class="st5" d="M1165.9,198.5L1165.9,198.5c-0.5,2.4-2.8,3.9-5.2,3.4l-154.6-32.2c-2.4-0.5-3.9-2.8-3.4-5.2l0,0
						c0.5-2.4,2.8-3.9,5.2-3.4l154.6,32.2C1164.8,193.8,1166.4,196.1,1165.9,198.5z"/>
					<path class="st3" d="M1362.4-9.4l-69.6,333.9c-0.5,2.2-2.7,3.7-4.9,3.2l-135.8-56.9c-2.2-0.5-3.7-2.7-3.2-4.9L1218.5-68
						c0.5-2.2,2.7-3.7,4.9-3.2l135.8,56.9C1361.5-13.8,1362.9-11.6,1362.4-9.4z"/>
					<path class="st3" d="M1130.1,368.3l-8.8,42.1c-0.6,2.7-3.2,4.4-5.9,3.9l-335.8-69.9c-2.7-0.6-4.4-3.2-3.9-5.9l8.8-42.1
						c0.6-2.7,3.2-4.4,5.9-3.9l335.8,69.9C1128.9,362.9,1130.7,365.6,1130.1,368.3z"/>
					<path class="st3" d="M1114.4,443.7l-8.8,42.1c-0.6,2.7-3.2,4.4-5.9,3.9l-335.8-69.9c-2.7-0.6-4.4-3.2-3.9-5.9l8.8-42.1
						c0.6-2.7,3.2-4.4,5.9-3.9l335.8,69.9C1113.2,438.4,1114.9,441,1114.4,443.7z"/>
					<path class="st3" d="M1145.3,295.3l-8.8,42.1c-0.6,2.7-3.2,4.4-5.9,3.9l-335.8-69.9c-2.7-0.6-4.4-3.2-3.9-5.9l8.8-42.1
						c0.6-2.7,3.2-4.4,5.9-3.9l335.8,69.9C1144.1,289.9,1145.9,292.6,1145.3,295.3z"/>
					
						<ellipse transform="matrix(0.2039 -0.979 0.979 0.2039 496.2349 1171.0049)" class="st4" cx="968.1" cy="280.4" rx="9.8" ry="9.8"/>
					
						<ellipse transform="matrix(0.2039 -0.979 0.979 0.2039 728.1047 1000.7877)" class="st4" cx="979.4" cy="52.7" rx="9.8" ry="9.8"/>
					
						<ellipse transform="matrix(0.2039 -0.979 0.979 0.2039 411.3428 1214.9026)" class="st4" cx="952.7" cy="354.5" rx="9.8" ry="9.8"/>
					<g>
						<path class="st6" d="M1085.9-31.3l5.4-29.3l19.4-16l-37.6-6.9l12,20.9l-5.5,30.2c-6.5-0.9-12.2-0.9-12.4,0.4
							c-0.3,1.5,6.4,3.9,14.9,5.5s15.7,1.6,16,0.2C1098.1-27.7,1092.8-29.8,1085.9-31.3z"/>
						<path class="st6" d="M1132-21.5l5.4-29.3l19.4-16l-37.8-7l12,20.9l-5.5,30.2c-6.5-0.9-12.2-0.9-12.4,0.4
							c-0.3,1.5,6.4,3.9,14.9,5.5s15.7,1.6,16,0.2C1144.2-17.9,1138.9-20,1132-21.5z"/>
						<path class="st6" d="M1175.4-13.5l5.4-29.3l19.4-16l-37.7-7l12,20.9l-5.5,30.2c-6.5-0.9-12.2-0.9-12.4,0.4
							c-0.3,1.5,6.4,3.9,14.9,5.5c8.5,1.5,15.7,1.6,16,0.2C1187.6-10,1182.3-12,1175.4-13.5z"/>
						<path class="st6" d="M1063.8,67.6l5.4-29.3l19.4-16l-37.6-6.9l12,20.9l-5.5,30.2c-6.5-0.9-12.2-0.9-12.4,0.4
							c-0.3,1.5,6.4,3.9,14.9,5.5c8.5,1.5,15.7,1.6,16,0.2C1076.1,71.2,1070.8,69.1,1063.8,67.6z"/>
						<path class="st6" d="M1109.9,77.3l5.4-29.3l19.4-16l-37.6-6.9l12,20.9l-5.5,30.2c-6.5-0.9-12.2-0.9-12.4,0.4
							c-0.3,1.5,6.4,3.9,14.9,5.5s15.7,1.6,16,0.2C1122.2,80.9,1116.9,78.8,1109.9,77.3z"/>
						<path class="st6" d="M1133.3,178.1l5.4-29.3l19.4-16l-37.6-6.9l12,20.9L1127,177c-6.5-0.9-12.2-0.9-12.4,0.4
							c-0.3,1.5,6.4,3.9,14.9,5.5c8.5,1.5,15.7,1.6,16,0.2C1145.6,181.7,1140.2,179.6,1133.3,178.1z"/>
						<path class="st6" d="M1024.4,237.9l5.4-29.3l19.4-16l-37.6-6.9l12,20.9l-5.5,30.2c-6.5-0.9-12.2-0.9-12.4,0.4
							c-0.3,1.5,6.4,3.9,14.9,5.5s15.7,1.6,16,0.2C1036.7,241.5,1031.4,239.4,1024.4,237.9z"/>
						<path class="st6" d="M1304,337l28.9-7.5l22.7,10.8l-9.6-37l-13.9,19.7l-29.7,7.7c-1.9-6.3-4.3-11.4-5.6-11.1
							c-1.4,0.4-0.9,7.5,1.3,15.8s5.1,14.9,6.5,14.5C1305.9,349.6,1305.5,343.9,1304,337z"/>
						<path class="st6" d="M1223.2,438.2l14-26.3l23.3-9.4l-33.8-18l5.1,23.5l-14.4,27.1c-5.9-2.8-11.3-4.5-12-3.4
							c-0.7,1.3,4.9,5.7,12.6,9.7c7.6,4,14.5,6.3,15.2,5C1233.8,445.3,1229.4,441.7,1223.2,438.2z"/>
						<path class="st6" d="M1213.2,294.3l-4.7-29.4l12.9-21.6l-37.8,6l18.2,15.7l4.8,30.3c-6.4,1.3-11.8,3.2-11.6,4.5
							c0.2,1.5,7.4,1.6,15.9,0.2c8.5-1.4,15.3-3.7,15.1-5.1C1225.9,293.7,1220.2,293.5,1213.2,294.3z"/>
						<path class="st6" d="M1274.3,499.1l25,16.3l7.3,24.1l20.9-32l-23.9,3l-25.7-16.8c3.4-5.6,5.5-10.9,4.4-11.6
							c-1.2-0.8-6.1,4.4-10.8,11.6c-4.7,7.2-7.6,13.8-6.3,14.6C1266.3,509,1270.2,504.9,1274.3,499.1z"/>
					</g>
					
						<ellipse transform="matrix(0.2039 -0.979 0.979 0.2039 326.339 1258.8585)" class="st4" cx="937.2" cy="428.8" rx="9.8" ry="9.8"/>
				</g>
				<rect y="-65.8" class="st1" width="1951.2" height="637.4"/>
				<g>
					<path class="st4" d="M796.1,386.1c0,0,12.2,0.5,10.1,18.1c0,0-6,18.8,7.4,56.3c20,38.5,8.9,74.9,1.9,85.5l-25.1-0.9
						c0,0,10.8-34.6-4-76.3s-6.3-63.3-6.3-63.3S779.5,384.1,796.1,386.1z"/>
					<path class="st4" d="M720,378.1c0,0,15.1,0.4,13.1,18.1c0,0-8,21.1,4.7,58.5c19.2,38.4,7.1,72.5,0.3,83.2l-26.5,0.3
						c0,0,12.8-35.7-1.3-77.4c-14.1-41.6-5.8-63.3-5.8-63.3S704,376.2,720,378.1z"/>
					<path class="st7" d="M806.7,84h-92.6c-11,0-20,9-20,20v105c0,11,9,20,20,20h92.6c11,0,20-9,20-20V104
						C826.7,93,817.7,84,806.7,84z"/>
					<path class="st4" d="M768.5,135.5h-16.2c-5,0-9,4.1-9,9v75.4c0,4.9,4,9,9,9h16.2c5,0,9-4.1,9-9v-75.4
						C777.5,139.6,773.5,135.5,768.5,135.5z"/>
					<path class="st4" d="M822.4,40.7h-124c-11,0-20,9-20,20v91c0,11,9,20,20,20h124c11,0,20-9,20-20v-91
						C842.4,49.7,833.4,40.7,822.4,40.7z"/>
					<path class="st8" d="M820.3,211.4H699.5c-7,0-12.8,6.6-12.8,14.7l-13.3,101.6c0,8.1,5.7,14.7,12.8,14.7h141.1
						c7,0,12.8-6.6,12.8-14.7L833,226C833,218,827.3,211.4,820.3,211.4z"/>
					<path class="st9" d="M713.4,99.6c0,0-1-10.8,10.8-10.8s11.2,10.8,11.2,10.8"/>
					<path class="st9" d="M790.7,121.1c0,0,2.6,29.6-29.6,29.6s-30.7-29.6-30.7-29.6"/>
					<path class="st9" d="M785.7,99.6c0,0-1-10.8,10.8-10.8c11.7,0,11.2,10.8,11.2,10.8"/>
					<path class="st7" d="M760.5-11c-49.7,0-90,31.7-90,79.7c0,0.2,0,1.3,0,1.3h77l14.9-25l14.9,25h73.1c0,0,0-1.1,0-1.3
						C850.5,20.7,810.2-11,760.5-11z"/>
					<circle class="st10" cx="701.5" cy="125.6" r="11.4"/>
					<circle class="st10" cx="819.1" cy="124.1" r="11.4"/>
					<path class="st11" d="M678.7,341.1c0,0-24.8,64.3-41.4,81.2C625,434.8,768,465.9,852.9,445.6c0,0,11.4,9.5-18.7-104.5H678.7
						L678.7,341.1z"/>
					<g>
						<polygon class="st12" points="751.4,3.3 719.4,-0.1 738.4,-26.1 						"/>
						<polygon class="st12" points="705.5,29.5 687.3,2.9 719.5,0.5 						"/>
						<circle class="st13" cx="719.6" cy="0" r="11.4"/>
					</g>
					<path class="st4" d="M831.3,307h-31.8c-2.8,0-5,2.2-5,5v16.4c0,2.8,2.2,5,5,5h31.8c2.8,0,5-2.2,5-5V312
						C836.3,309.3,834,307,831.3,307z"/>
					<path class="st8" d="M707.7,217.8c0,0-2.3-18-16.2-13.9c-14.9,4.4-6.9,25.4-6.9,25.4c19.5,106,128.7,104.9,128.7,104.9
						l5.8-25.6C717.2,305.7,707.7,217.8,707.7,217.8z"/>
					<g>
						<path class="st4" d="M950.4,245.4l-28.1-14.9c-2.4-1.3-3.4-4.3-2.1-6.8l5.3-9.9c1.3-2.4,4.3-3.4,6.8-2.1l28.1,14.9
							c2.4,1.3,3.4,4.3,2.1,6.8l-5.3,9.9C955.8,245.7,952.8,246.7,950.4,245.4z"/>
						<path class="st8" d="M804.5,213.9c0,0,1.8-9.8,17.1-5.8c0,0,19.7,9.9,54.1,4.1c36.1-11.1,63.2,0.4,71.8,7.6l-8.5,19.6
							c0,0-24.3-12.7-62.7-6.4c-38.4,6.4-56.5-3.5-56.5-3.5S801,227.2,804.5,213.9z"/>
					</g>
					<path class="st14" d="M811.4,545.1h-20c0,0-10.6,20.3-5.3,25.4c5.3,5.1,35.9,5.1,39.7,0C829.7,565.4,811.4,545.1,811.4,545.1z"
						/>
					<path class="st14" d="M732.4,539.1h-20.9c0,0-11,20.7-5.5,26.1c5.5,5.3,37.4,5.6,41.5,0.2C751.5,560.1,732.4,539.1,732.4,539.1
						z"/>
				</g>
				<rect y="-65.8" class="st1" width="1951.2" height="637.4"/>
				<rect x="-47.4" y="-285.7" class="st1" width="1999" height="1025.9"/>
				<rect y="-65.8" class="st1" width="1951.2" height="637.4"/>
				<path class="st15" d="M540-5.5H119.9c-4.9,0-9,4.1-9,9v267.2c0,5,4.1,9,9,9H540c5,0,9-4,9-9V3.5C549-1.4,544.9-5.5,540-5.5z"/>
				<rect y="-65.8" class="st1" width="1951.2" height="637.4"/>
				<path class="st3" d="M545,264.8H114.9c-5,0-9,4-9,9l0,0c0,4.9,4,9,9,9H545c5,0,9-4.1,9-9l0,0C554,268.9,550,264.8,545,264.8z"/>
				<rect y="-65.8" class="st1" width="1951.2" height="637.4"/>
				<path class="st16" d="M352.9,122.6c0.7-2.7,1-5.6,1-8.6c0-20.9-17-37.9-37.9-37.9c-12.2,0-23,5.8-29.9,14.7
					c-6.2-4.4-13.7-6.9-21.9-7c-8.9-17.4-26.9-29.4-47.8-29.4c-29.6,0-53.6,23.9-53.6,53.5c0,5.1,0.7,9.8,2,14.5h188.1V122.6z"/>
				<rect y="-65.8" class="st1" width="1951.2" height="637.4"/>
				<path class="st16" d="M479,181.6c1.3-3,2-7.7,2-12c0-21.2-17.2-38.3-38.4-38.3c-13.8,0-25.9,7.4-32.7,18.3
					c-3.5-1.4-7.4-2.2-11.5-2.2c-16.8,0-30.4,13.4-30.4,30.2c0,1.5,0.1,2,0.3,4H479z"/>
				<rect y="-65.8" class="st1" width="1951.2" height="637.4"/>
				<g>
					<path d="M1569.2,484.7l-13-73.5c-0.3-1.4-1.6-2.4-3-2.1l-1.4,0.2c-1.4,0.3-2.4,1.6-2.1,3l13,73.5c0.3,1.4,1.6,2.4,3,2.1
						l1.4-0.2C1568.5,487.5,1569.5,486.2,1569.2,484.7z"/>
					<path d="M1602.6,485.8l15.7-73.2c0.3-1.4-0.6-2.7-1.9-3l-1.3-0.3c-1.4-0.3-2.7,0.6-3,1.9l-15.7,73.2c-0.3,1.4,0.6,2.7,1.9,3
						l1.3,0.3C1600.9,488,1602.3,487.2,1602.6,485.8z"/>
					<path d="M1587.3,485.3l-7.3-94.5c-0.1-1.6-1.5-2.7-3-2.6l-1.5,0.1c-1.6,0.1-2.7,1.5-2.6,3l7.3,94.5c0.1,1.6,1.5,2.7,3,2.6
						l1.5-0.1C1586.3,488.2,1587.4,486.8,1587.3,485.3z"/>
					<path class="st3" d="M1637,482.4h-100.1c-4.9,0-8.8,5.1-8.8,11.4l13.9,64.1c0,6.3,4,11.4,8.8,11.4h72.3c4.9,0,8.8-5.1,8.8-11.4
						l13.9-64.1C1645.8,487.5,1641.9,482.4,1637,482.4z"/>
					<path class="st17" d="M1520.2,287.7c0,0-35.9,124.2,58.6,134.7C1578.9,422.4,1633.5,355.8,1520.2,287.7z"/>
					<path class="st17" d="M1692.5,280.4c0,0-151.5,65.9-84.8,167.4C1607.7,447.8,1717.8,447.3,1692.5,280.4z"/>
					<path class="st17" d="M1486.1,361.4c0,0-1.9,105.4,74.8,93.5C1560.8,455,1589.7,390.9,1486.1,361.4z"/>
					<path class="st3" d="M1643.8,476.6h-113.7c-4.9,0-9,4.1-9,9v4.8c0,5,4.1,9,9,9h113.7c4.9,0,9-4,9-9v-4.8
						C1652.8,480.7,1648.7,476.6,1643.8,476.6z"/>
				</g>
			</g>
		</g>
	</g>
</g>
</svg>
